<?xml version="1.0" encoding="UTF-8"?>
<svg version="1.1" xmlns="http://www.w3.org/2000/svg" width="758" height="758">
<path d="M0 0 C0.64988026 -0.0002987 1.29976052 -0.0005974 1.96933413 -0.00090516 C4.14491475 -0.00054959 6.32040572 0.00711782 8.49597168 0.01486206 C10.05655374 0.01682132 11.61713631 0.01840399 13.17771912 0.01963806 C18.29880837 0.02579466 23.41983521 0.04302018 28.54089355 0.06124878 C30.30404146 0.06704049 32.06718945 0.07280695 33.83033752 0.07854843 C41.16157842 0.10321452 48.49279873 0.1307554 55.8239975 0.16589546 C66.33315661 0.21618091 76.8420546 0.24953261 87.35133219 0.259184 C94.74090837 0.26732136 102.13026676 0.29444428 109.51973104 0.33579051 C113.93418623 0.36000108 118.34830537 0.3758511 122.76283264 0.37152481 C126.91305873 0.36789392 131.0625093 0.38772741 135.21255684 0.42570305 C136.73632784 0.43555502 138.26018125 0.43687266 139.78396416 0.42907524 C141.86331062 0.41972761 143.94017303 0.44098174 146.01928711 0.4699707 C147.76474445 0.476067 147.76474445 0.476067 149.54546356 0.48228645 C152.50964355 1.11593628 152.50964355 1.11593628 154.88195038 3.4479351 C156.97217955 6.87409303 157.04098982 9.21025156 157.0760498 13.20968628 C157.08224838 13.87883057 157.08844696 14.54797485 157.09483337 15.23739624 C157.10190736 16.64595085 157.09879974 18.05458949 157.08605957 19.46310425 C157.07217758 21.61067279 157.10630335 23.75389062 157.14440918 25.90109253 C157.14536041 27.27479151 157.14350133 28.6484959 157.1385498 30.02218628 C157.13963745 31.88327026 157.13963745 31.88327026 157.14074707 33.7819519 C156.29461578 38.25188187 155.19145641 39.42542552 151.50964355 42.11593628 C147.64994182 42.84403316 143.84344632 42.74733796 139.9263916 42.68356323 C138.755233 42.68429337 137.5840744 42.6850235 136.37742615 42.68577576 C132.5082663 42.68229373 128.64031174 42.64339993 124.7713623 42.60421753 C122.08805807 42.59489159 119.40482051 42.58752854 116.72151184 42.58277893 C110.38201273 42.56725231 104.0429459 42.52624051 97.70363694 42.47603148 C89.77642533 42.41461179 81.84914317 42.38728153 73.92175293 42.3600769 C59.78404659 42.31140986 45.64728321 42.21124621 31.50964355 42.11593628 C31.50964355 62.24593628 31.50964355 82.37593628 31.50964355 103.11593628 C39.03132324 103.05792847 46.55300293 102.99992065 54.3026123 102.94015503 C59.06500363 102.91461022 63.82731061 102.89054079 68.58972168 102.87179565 C76.15052817 102.841895 83.71103218 102.80650579 91.27160645 102.73873901 C97.3664869 102.68445079 103.46104306 102.65452203 109.55614662 102.64155006 C111.88262348 102.63230459 114.2090824 102.61425045 116.53542137 102.587286 C119.79178736 102.55103948 123.04680978 102.54598929 126.30334473 102.54830933 C127.26719589 102.53033295 128.23104706 102.51235657 129.22410583 102.49383545 C133.79602164 102.52912934 135.85328529 102.62403376 139.60710144 105.43730164 C142.09031446 108.93347676 142.15494281 111.16113892 142.17370605 115.42843628 C142.17848969 116.11977661 142.18327332 116.81111694 142.1882019 117.52340698 C142.19159091 118.97907804 142.18245805 120.43482624 142.16149902 121.89035034 C142.13470902 124.11051125 142.16127002 126.32561889 142.1932373 128.54562378 C142.18993302 129.9649057 142.18352636 131.38418449 142.17370605 132.80343628 C142.16806641 134.08605347 142.16242676 135.36867065 142.15661621 136.69015503 C141.31023122 141.17184339 140.15471798 142.38416403 136.50964355 145.11593628 C133.10481179 145.82972699 129.77088458 145.74823485 126.30334473 145.68356323 C125.27848969 145.68429337 124.25363464 145.6850235 123.19772339 145.68577576 C119.81547842 145.68229665 116.43461624 145.64341814 113.0526123 145.60421753 C110.70564018 145.59489061 108.35865831 145.58777393 106.01167297 145.58277893 C99.83827783 145.56369992 93.66547206 145.51459019 87.49230957 145.45925903 C80.08349029 145.3990877 72.6744738 145.37615473 65.26548004 145.34699249 C54.0131248 145.29852698 42.76206241 145.20271586 31.50964355 145.11593628 C31.50964355 165.57593628 31.50964355 186.03593628 31.50964355 207.11593628 C40.25851074 207.06953003 49.00737793 207.02312378 58.0213623 206.97531128 C64.26249001 206.95227907 70.50358585 206.93177328 76.74472904 206.91492081 C84.83272235 206.89274437 92.92055088 206.86457831 101.00842285 206.81417847 C107.41134325 206.77429749 113.8141394 206.74850039 120.21718055 206.7395823 C123.60730708 206.73436958 126.99707813 206.72212734 130.38709068 206.69301605 C134.17254231 206.66404948 137.95725353 206.65997764 141.74279785 206.66183472 C143.42701843 206.64026306 143.42701843 206.64026306 145.14526367 206.61825562 C152.72132629 206.65856737 152.72132629 206.65856737 156.68257141 208.95681763 C160.89407902 213.93371176 159.76934179 220.7020039 159.80480957 226.88497925 C159.81633693 228.28547259 159.83680125 229.68592173 159.86633301 231.08615112 C159.9091003 233.11461086 159.9251882 235.14176868 159.9354248 237.17062378 C159.95000732 238.3821814 159.96458984 239.59373901 159.97961426 240.8420105 C159.41590447 244.76894464 158.35630171 246.39087141 155.50964355 249.11593628 C152.05576427 250.35956606 148.62915997 250.25249086 144.98805237 250.26983643 C144.33479412 250.27421868 143.68153587 250.27860093 143.00848192 250.28311598 C140.82144751 250.29646134 138.63445336 250.30267309 136.4473877 250.30880737 C134.87857381 250.31671141 133.30976173 250.32498055 131.74095154 250.33358765 C126.59225185 250.35976263 121.4435442 250.3751061 116.2947998 250.38937378 C114.52176852 250.39473444 112.74873728 250.40011195 110.9757061 250.40550613 C103.60246135 250.42712404 96.22921876 250.44586237 88.85595036 250.45712852 C78.28911952 250.47338148 67.72265554 250.50660416 57.155963 250.56352937 C49.72486775 250.60219929 42.29387076 250.62175743 34.86267751 250.62704909 C30.42407831 250.63070527 25.9858708 250.64275535 21.54738045 250.67515182 C17.37348515 250.70518253 13.20021962 250.71156249 9.0262394 250.69976807 C7.49477035 250.69954694 5.96327248 250.70788435 4.43190384 250.72542191 C2.33991531 250.74807566 0.25021826 250.73984061 -1.84178162 250.72393799 C-3.0118724 250.72724813 -4.18196318 250.73055828 -5.38751125 250.73396873 C-9.6429022 249.88636934 -11.02241506 248.68115728 -13.49035645 245.11593628 C-14.19743053 241.88074175 -14.15690231 238.73136272 -14.11181641 235.43025208 C-14.11820523 234.44874965 -14.12459405 233.46724722 -14.13117647 232.4560023 C-14.14644953 229.16376662 -14.12594904 225.87272986 -14.10559082 222.58053589 C-14.10909128 220.22178244 -14.114749 217.86303134 -14.12240601 215.50428772 C-14.13667344 209.0952724 -14.11957327 202.6866851 -14.09612083 196.27771068 C-14.07591782 190.25598688 -14.08125637 184.23424968 -14.08359867 178.21250231 C-14.08728848 166.28139578 -14.0664658 154.35045587 -14.03234863 142.41940308 C-13.99925003 130.84025869 -13.98509162 119.26128913 -13.99133301 107.68209839 C-13.99809575 95.07365352 -13.99564068 82.46528188 -13.97597361 69.85684782 C-13.97493412 69.19025248 -13.97389463 68.52365713 -13.97282365 67.83686193 C-13.97073275 66.49802371 -13.96862178 65.15918553 -13.96649048 63.82034738 C-13.95959299 59.15790389 -13.95899665 54.49549792 -13.96037292 49.83305168 C-13.96125018 43.55969496 -13.94707848 37.28654795 -13.92114639 31.01324654 C-13.91396841 28.70736329 -13.91190877 26.40145777 -13.91526413 24.0955658 C-13.91896314 20.95502665 -13.90428607 17.81510488 -13.88476562 14.67463684 C-13.89009355 13.75587121 -13.89542148 12.83710559 -13.90091085 11.89049858 C-13.86246368 8.32073494 -13.83433493 5.80001201 -12.21570587 2.58101749 C-8.58672738 -0.50053117 -4.59107543 -0.00710987 0 0 Z " fill="#000000" transform="translate(215.4903564453125,248.88406372070313)"/>
<path d="M0 0 C1.22712204 -0.01268921 1.22712204 -0.01268921 2.47903442 -0.02563477 C3.3734726 -0.01956207 4.26791077 -0.01348938 5.18945312 -0.00723267 C6.1347287 -0.01248962 7.08000427 -0.01774658 8.05392456 -0.02316284 C11.19301706 -0.03640849 14.33160501 -0.02759729 17.47070312 -0.01748657 C19.66292416 -0.01950868 21.85514454 -0.02242126 24.04736328 -0.02618408 C28.65761679 -0.03061582 33.26769637 -0.02415895 37.87792969 -0.01016235 C43.7355977 0.00676907 49.59284845 -0.00280331 55.45050049 -0.02087975 C59.98924779 -0.03183305 64.52789988 -0.02821621 69.06665039 -0.02049637 C71.22241263 -0.01851762 73.37818398 -0.02087021 75.53393555 -0.02793503 C104.18714607 -0.10110802 131.97881487 3.96165949 153.44335938 24.70126343 C169.91556774 42.16638698 175.86160709 62.48082243 175.25585938 86.15438843 C174.25706303 108.91357217 165.88646671 128.7470314 148.97070312 144.38095093 C128.17010197 161.08291146 103.47967305 165.60012287 77.40039062 165.47860718 C76.23814972 165.47719223 75.07590881 165.47577728 73.87844849 165.47431946 C70.20083946 165.46876434 66.52329345 165.45622034 62.84570312 165.44345093 C60.33789151 165.43843012 57.83007893 165.43386823 55.32226562 165.42977905 C49.20505697 165.41880965 43.08788455 165.40211682 36.97070312 165.38095093 C36.99948799 166.78583519 36.99948799 166.78583519 37.02885437 168.21910095 C37.20797589 177.06106842 37.37062177 185.90320724 37.51729107 194.74577427 C37.59321441 199.29144319 37.67486612 203.83685633 37.76977539 208.38217163 C37.86121634 212.77161202 37.93739263 217.16108012 38.00315285 221.55097771 C38.03084709 223.22273518 38.06396854 224.89441215 38.10269737 226.56595039 C38.15615538 228.91388493 38.19001166 231.26136896 38.21948242 233.60971069 C38.23961899 234.29519989 38.25975555 234.98068909 38.28050232 235.68695068 C38.31360273 240.69501909 37.25325267 244.01738757 34.97070312 248.38095093 C31.83705334 249.94777582 28.48336905 249.58597437 25.04101562 249.61923218 C24.2542746 249.62730392 23.46753357 249.63537567 22.6569519 249.64369202 C20.99088748 249.65752997 19.32479474 249.66825342 17.65869141 249.67611694 C15.11240913 249.69333794 12.56742276 249.7372251 10.02148438 249.78134155 C8.40300434 249.79146795 6.78451327 249.79998422 5.16601562 249.80673218 C4.40547882 249.82424026 3.64494202 249.84174835 2.86135864 249.85978699 C-0.3062162 249.84680787 -2.5414437 249.69701797 -5.23091221 247.95458317 C-7.9708077 244.03357366 -7.57891817 240.41017939 -7.53050232 235.73286438 C-7.53603672 234.74334371 -7.54157111 233.75382303 -7.54727322 232.73431689 C-7.5609174 229.4091623 -7.54588969 226.08475341 -7.53100586 222.75961304 C-7.53478763 220.3796812 -7.54028649 217.99975155 -7.54737854 215.61982727 C-7.55991436 209.82132637 -7.55374961 204.02306569 -7.53870296 198.22457521 C-7.5218531 191.47461753 -7.52505177 184.72471421 -7.52879704 177.974742 C-7.5346769 165.93326176 -7.52049855 153.89188605 -7.49584961 141.85043335 C-7.47192309 130.16061485 -7.46484724 118.470936 -7.4753418 106.78109741 C-7.48674507 94.05621321 -7.48868881 81.33139363 -7.4742437 68.60651022 C-7.47271783 67.25029823 -7.47119748 65.89408623 -7.46968269 64.53787422 C-7.46892488 63.87056162 -7.46816707 63.20324903 -7.46738629 62.51571484 C-7.4626393 57.80823127 -7.46449779 53.10077651 -7.46874809 48.39329338 C-7.47350802 42.06086848 -7.46345699 35.72863772 -7.44179344 29.39624977 C-7.4362122 27.06736786 -7.43577244 24.73846734 -7.44074631 22.40958405 C-7.44666814 19.24018929 -7.43425353 16.07139439 -7.41697693 12.90205383 C-7.42298697 11.97191135 -7.42899702 11.04176886 -7.43518919 10.08344024 C-7.42674925 9.23695216 -7.41830931 8.39046409 -7.40961361 7.51832485 C-7.40858448 6.78649374 -7.40755535 6.05466264 -7.40649503 5.30065483 C-6.59141151 1.15238692 -3.92077951 0.00624614 0 0 Z M36.97070312 42.38095093 C36.87566062 44.90636095 36.84513155 47.40432219 36.85717773 49.93002319 C36.85703171 50.72020844 36.85688568 51.51039368 36.85673523 52.32452393 C36.85743456 54.94882915 36.86522785 57.57306428 36.87304688 60.19735718 C36.87491098 62.01196758 36.87633492 63.82657849 36.87733459 65.64118958 C36.88116033 70.42685323 36.89099109 75.21248672 36.90203857 79.99813843 C36.9122515 84.87769157 36.91683196 89.75724956 36.921875 94.6368103 C36.93261331 104.21820379 36.94969039 113.79957486 36.97070312 123.38095093 C44.31727101 123.43196675 51.66379263 123.46681635 59.01049805 123.49081421 C61.50595812 123.50082641 64.0014066 123.51444015 66.49682617 123.53182983 C70.09882482 123.55628918 73.70066736 123.5674822 77.30273438 123.57626343 C78.95653862 123.59174728 78.95653862 123.59174728 80.64375305 123.60754395 C95.89582242 123.60971699 109.43368205 120.564749 120.65820312 109.75595093 C128.34558401 101.45357957 130.60371664 91.52399498 130.97070312 80.38095093 C129.92743239 68.94094772 125.99088147 59.91690559 117.65820312 52.00595093 C105.57025508 41.94618208 90.47791629 41.21829712 75.40820312 41.24813843 C73.79945313 41.24670334 73.79945313 41.24670334 72.15820312 41.24523926 C69.90934185 41.24456273 67.66047855 41.24637999 65.41162109 41.25057983 C61.9534068 41.25597793 58.4953199 41.25059548 55.03710938 41.24423218 C52.848307 41.24489223 50.65950471 41.24617187 48.47070312 41.24813843 C46.91307251 41.24510208 46.91307251 41.24510208 45.32397461 41.24200439 C44.37208252 41.24515656 43.42019043 41.24830872 42.43945312 41.2515564 C41.1777832 41.25274979 41.1777832 41.25274979 39.890625 41.25396729 C37.96227404 41.16974697 37.96227404 41.16974697 36.97070312 42.38095093 Z " fill="#000000" transform="translate(417.029296875,249.61904907226563)"/>
<path d="M0 0 C4.81202539 2.16586453 8.09153274 4.734653 10.88671875 9.30859375 C12.19305299 14.02676565 12.57451562 17.80794604 10.51171875 22.30859375 C7.43889433 25.82039308 4.36315448 29.32435681 1.20703125 32.76171875 C-1.51073799 35.74485939 -4.11509365 38.81430788 -6.703125 41.91015625 C-8.11328125 43.30859375 -8.11328125 43.30859375 -10.11328125 43.30859375 C-10.34811722 43.8690741 -10.58295319 44.42955444 -10.8249054 45.00701904 C-12.42829249 47.87133474 -14.39458142 49.82166442 -16.72729492 52.13378906 C-17.19426788 52.59944778 -17.66124084 53.06510651 -18.1423645 53.5448761 C-19.68411056 55.0801435 -21.23271232 56.60830464 -22.78125 58.13671875 C-23.86072459 59.20991578 -24.93968088 60.28363436 -26.0181427 61.35784912 C-28.86025468 64.18666402 -31.70786922 67.00986849 -34.55712891 69.83148193 C-39.10031149 74.33156726 -43.63693537 78.83823618 -48.17009926 83.34841156 C-49.74453599 84.91274044 -51.32240656 86.47354057 -52.90068054 88.03399658 C-57.6519535 92.7457179 -62.27385316 97.5052999 -66.6247406 102.59173584 C-68.77114562 105.06736352 -71.06725006 107.37464971 -73.390625 109.68359375 C-74.31552734 110.60527344 -75.24042969 111.52695312 -76.19335938 112.4765625 C-77.14577693 113.42062982 -78.09825156 114.36463957 -79.05078125 115.30859375 C-80.03083435 116.28361761 -81.01065365 117.25887655 -81.99023438 118.234375 C-84.36230438 120.59475993 -86.73668985 122.9527628 -89.11328125 125.30859375 C-84.38083697 131.0076772 -79.30160927 136.23271021 -74.03442383 141.4375 C-72.66312077 142.79916488 -71.29182068 144.16083275 -69.92063272 145.52261353 C-68.45882816 146.97355927 -66.99582764 148.42329018 -65.53257179 149.87277222 C-62.47332326 152.90399133 -59.41965308 155.94078873 -56.36711121 158.97875977 C-55.3185199 160.02220856 -54.26992156 161.06565028 -53.22131634 162.10908508 C-52.69656165 162.63125422 -52.17180695 163.15342335 -51.6311506 163.69141579 C-44.53289636 170.75371792 -37.42986423 177.811163 -30.31665039 184.85839844 C-25.50449359 189.62600963 -20.69953383 194.4007494 -15.9025566 199.18363476 C-13.36876448 201.70937361 -10.83141601 204.23129293 -8.28510475 206.74441528 C-5.44722178 209.5453647 -2.62505722 212.36183229 0.19604492 215.1796875 C1.03610077 216.0037912 1.87615662 216.8278949 2.7416687 217.67697144 C8.2070247 223.17111524 11.35694454 227.26906537 12.38671875 235.12109375 C12.14001233 240.87383887 9.5015785 246.81793984 5.32421875 250.796875 C0.63429988 254.02119422 -3.51381423 254.76756646 -9.11328125 254.30859375 C-16.47070968 252.04946635 -21.63889762 246.44408697 -27.11328125 241.30859375 C-28.56649104 240.05264096 -30.02439238 238.80208299 -31.48828125 237.55859375 C-34.40995878 235.02104115 -36.69404906 232.33263399 -39.11328125 229.30859375 C-40.17805752 228.36727762 -41.26021346 227.4455308 -42.3515625 226.53515625 C-49.00547068 220.77514632 -55.1028261 214.42385304 -61.30078125 208.18359375 C-62.57072812 206.90861963 -63.84090874 205.63387829 -65.11132812 204.359375 C-67.44309715 202.01950035 -69.77351319 199.6782969 -72.10229492 197.33544922 C-74.76749103 194.6546826 -77.43897961 191.98028008 -80.11328125 189.30859375 C-83.11328125 186.30859375 -86.11328125 183.30859375 -89.11328125 180.30859375 C-89.86375732 179.55884277 -90.6142334 178.8090918 -91.38745117 178.03662109 C-93.74158839 175.68058622 -96.0912698 173.32028206 -98.43867493 170.95755005 C-100.67702148 168.70564304 -102.9181874 166.45654994 -105.15942383 164.20751953 C-106.33253138 163.02938554 -107.50473953 161.85035527 -108.67602539 160.67041016 C-114.49311343 154.81160204 -120.28840733 149.03541669 -126.57739258 143.67773438 C-128.50738263 141.95727909 -130.05927224 140.1044875 -131.55078125 137.99609375 C-132.26041016 137.01189453 -132.26041016 137.01189453 -132.984375 136.0078125 C-134.9459047 133.055337 -135.32425129 131.0854239 -135.42578125 127.55859375 C-135.46316406 126.718125 -135.50054687 125.87765625 -135.5390625 125.01171875 C-134.51746792 118.52599901 -128.9193273 113.83146399 -124.44140625 109.40625 C-123.80015808 108.76546005 -123.15890991 108.1246701 -122.49822998 107.46446228 C-121.14572056 106.11496131 -119.79079419 104.7678788 -118.43359375 103.4230957 C-116.3783713 101.38605034 -114.33118511 99.34119689 -112.28515625 97.29492188 C-110.96270854 95.97739371 -109.63980624 94.66032164 -108.31640625 93.34375 C-107.71403137 92.74248795 -107.11165649 92.14122589 -106.49102783 91.52174377 C-103.53723947 88.600053 -100.53724511 85.7836861 -97.38095093 83.08122253 C-93.14750838 79.39084644 -89.1776642 75.48697602 -85.23193359 71.49316406 C-84.4893782 70.74593582 -83.74682281 69.99870758 -82.98176575 69.22883606 C-81.38368428 67.62032237 -79.78670919 66.01070885 -78.19074631 64.40009308 C-75.66281898 61.84999981 -73.13082004 59.30401622 -70.5975647 56.75921631 C-63.40026896 49.52845049 -56.20723047 42.29349119 -49.02441406 35.04833984 C-44.61906673 30.60534463 -40.20643668 26.16969541 -35.78905106 21.73867035 C-34.11096836 20.05254076 -32.43566565 18.36363967 -30.76322556 16.67191315 C-28.42761771 14.3098233 -26.08286642 11.95718182 -23.73583984 9.60644531 C-23.04997299 8.90822159 -22.36410614 8.20999786 -21.65745544 7.49061584 C-15.41177233 1.27088952 -9.03273277 -2.95525638 0 0 Z " fill="#000000" transform="translate(143.11328125,249.69140625)"/>
<path d="M0 0 C3.717033 2.35632186 6.60057084 5.45684226 9.6027832 8.64550781 C10.83971117 9.93581899 12.07929956 11.22358507 13.3215332 12.50878906 C14.12494141 13.35824097 14.12494141 13.35824097 14.94458008 14.22485352 C16.79737653 16.03468353 18.68959698 17.70847493 20.65505981 19.39222717 C25.43938926 23.56864746 29.93223645 28.00739054 34.42456055 32.49365234 C35.76748672 33.82913116 35.76748672 33.82913116 37.13754272 35.19158936 C39.56936891 37.61042956 41.99797199 40.03247913 44.42554808 42.45558405 C45.94481261 43.97190039 47.464655 45.48763525 48.98466873 47.00320053 C53.7485664 51.75347091 58.5104935 56.50570343 63.26952207 61.26085198 C68.7498652 66.73670069 74.23671502 72.2059188 79.72922933 77.66955864 C83.98776438 81.90648446 88.24052422 86.14915055 92.48893702 90.39622581 C95.02164267 92.92788457 97.55670905 95.45706536 100.09782028 97.98028946 C102.92600815 100.78894785 105.74218581 103.60946026 108.55737305 106.43115234 C109.8181366 107.67809372 109.8181366 107.67809372 111.10437012 108.95022583 C111.86966034 109.72108521 112.63495056 110.49194458 113.4234314 111.28616333 C114.42273965 112.28327174 114.42273965 112.28327174 115.44223595 113.30052376 C118.28165484 116.77592838 119.49451235 120.18142769 119.1027832 124.64550781 C118.31237983 130.08851287 115.68735062 133.30608953 112.1027832 137.33300781 C111.49692383 138.03425781 110.89106445 138.73550781 110.2668457 139.45800781 C107.91883031 142.12089117 105.51843284 144.73172362 103.1027832 147.33300781 C102.53769043 147.94321777 101.97259766 148.55342773 101.39038086 149.18212891 C93.79093148 157.37151719 86.08796438 165.45569589 78.2277832 173.39550781 C77.54385498 174.09240723 76.85992676 174.78930664 76.15527344 175.50732422 C75.52177979 176.14202637 74.88828613 176.77672852 74.2355957 177.43066406 C73.67759277 177.99277588 73.11958984 178.5548877 72.54467773 179.1340332 C71.1027832 180.33300781 71.1027832 180.33300781 69.1027832 180.33300781 C68.7727832 181.32300781 68.4427832 182.31300781 68.1027832 183.33300781 C66.68298364 184.51617411 65.25917583 185.69489878 63.81440735 186.84744263 C62.04398455 188.38404077 60.59970824 189.99586667 59.09179688 191.78955078 C51.1763748 200.94900133 42.39884544 209.3823748 33.87158203 217.96923828 C31.56801291 220.29062542 29.27327166 222.62023144 26.98583984 224.95751953 C24.19669155 227.80733297 21.39265823 230.64169722 18.57784081 233.46615219 C17.51909819 234.53336314 16.46542684 235.60563378 15.41738319 236.68335342 C8.21118354 244.08258676 -0.28372643 252.18712748 -11.1472168 253.02050781 C-16.60793363 252.01937639 -20.50621509 249.91878213 -24.2878418 245.82910156 C-27.16412784 241.62607795 -27.66524178 237.19170002 -27.47924805 232.17675781 C-25.92090004 224.56281588 -19.56337865 218.34031364 -13.8972168 213.33300781 C-13.2372168 213.33300781 -12.5772168 213.33300781 -11.8972168 213.33300781 C-11.57237305 212.52089844 -11.57237305 212.52089844 -11.2409668 211.69238281 C-9.43221683 208.51655438 -6.9799788 206.125727 -4.3972168 203.58300781 C-3.89834961 203.07640625 -3.39948242 202.56980469 -2.88549805 202.04785156 C0.84937181 198.33300781 0.84937181 198.33300781 3.1027832 198.33300781 C3.1027832 197.67300781 3.1027832 197.01300781 3.1027832 196.33300781 C4.33312988 195.12266541 4.33312988 195.12266541 6.17895508 193.62573242 C13.13107613 187.70701163 19.44508043 181.11332608 25.8840332 174.64941406 C27.30727564 173.22430369 28.73074115 171.79941605 30.15441895 170.3747406 C33.87852623 166.64683773 37.59961904 162.91594026 41.32006836 159.18438721 C45.12601397 155.36816351 48.93483565 151.55481264 52.7434082 147.74121094 C60.19933302 140.27460104 67.65207283 132.80482081 75.1027832 125.33300781 C74.15640282 124.20431973 73.20650135 123.07858339 72.25512695 121.95410156 C71.72653076 121.32689209 71.19793457 120.69968262 70.65332031 120.0534668 C69.05753569 118.18770107 69.05753569 118.18770107 66.6652832 116.39550781 C64.43487329 114.60029984 62.86331476 112.945816 61.0402832 110.77050781 C58.12809346 107.35837134 55.01318843 104.38049648 51.6652832 101.39550781 C44.30268544 94.81972538 37.68522463 87.5592761 30.98706055 80.31933594 C28.52300996 77.72183457 25.95757301 75.23693947 23.36376953 72.76953125 C22.1027832 71.33300781 22.1027832 71.33300781 22.1027832 69.33300781 C21.52402435 69.07891144 20.9452655 68.82481506 20.34896851 68.5630188 C17.85077154 67.19500623 16.17903106 65.66322897 14.16381836 63.65283203 C13.40267731 62.8979953 12.64153625 62.14315857 11.85733032 61.365448 C11.0437204 60.54778961 10.23011047 59.73013123 9.3918457 58.88769531 C8.12321182 57.62193161 8.12321182 57.62193161 6.82894897 56.33059692 C5.03951035 54.54251939 3.25259534 52.75191329 1.46801758 50.95898438 C-1.24790784 48.23241206 -3.97424854 45.51658915 -6.7019043 42.80175781 C-8.44212875 41.06021071 -10.18173214 39.31804275 -11.9206543 37.57519531 C-12.73021576 36.76968231 -13.53977722 35.96416931 -14.37387085 35.13424683 C-27.74053527 21.65777949 -27.74053527 21.65777949 -28.1315918 13.57128906 C-27.58266182 8.32900778 -25.17246425 4.57555661 -21.4597168 0.95800781 C-14.06844804 -3.72913823 -7.64083711 -3.99639096 0 0 Z " fill="#000000" transform="translate(633.897216796875,251.6669921875)"/>
<path d="M0 0 C2.46800047 1.15173355 4.04783565 2.04783565 6 4 C5.67 4.99 5.34 5.98 5 7 C3.29115995 5.37660195 1.62553283 3.70680947 0 2 C0 1.34 0 0.68 0 0 Z " fill="#090809" transform="translate(69,393)"/>
</svg>
